# xmcd
#
# Track frame offsets: 
#        150
#        10829
#        24254
#        35831
#        48409
#        59619
#        70138
#        82630
#        92646
#        106557
#        117859
#        128512
#        143585
#        154235
#        168889
#        180391
#        191979
#        205447
#        219122
#        232124
#
# Disc length: 3243 seconds
#
# Revision: 2
# Processed by: cddbd v1.5.2PL0 Copyright (c) Steve Scherf et al.
# Submitted via: ExactAudioCopy v1.1
#
DISCID=020ca914
DTITLE=Arthur Conley - Sweet Soul Music - Shake, Rattle and Roll
DYEAR=1967
DGENRE=R&B
TTITLE0=Sweet Soul Music (mono)
TTITLE1=Take Me (Just As I Am) (mono)
TTITLE2=Who's Foolin' Who (mono)
TTITLE3=There's A Place For Us (mono)
TTITLE4=I Can't Stop (No, No, No) (mono)
TTITLE5=Wholesale Love (mono)
TTITLE6=I'm A Lonely Stranger (mono)
TTITLE7=I'm Gonna Forget About You (mono)
TTITLE8=Let Nothing Seperate Us (stereo)
TTITLE9=Where You Lead Me (mono)
TTITLE10=Shake, Rattle and Roll (stereo)
TTITLE11=I've Been Loving You Too Long (To Stop Now) (stereo)
TTITLE12=Love Got Me (stereo)
TTITLE13=A Change Is Gonna Come (stereo)
TTITLE14=Hand And Glove (stereo)
TTITLE15=Ha! Ha! Ha! (stereo)
TTITLE16=You Don't Have To See Me (stereo)
TTITLE17=Baby What You Want Me To Do (stereo)
TTITLE18=I'll Take The Blame (stereo)
TTITLE19=Keep On Talking (stereo)
EXTD=
EXTT0=
EXTT1=
EXTT2=
EXTT3=
EXTT4=
EXTT5=
EXTT6=
EXTT7=
EXTT8=
EXTT9=
EXTT10=
EXTT11=
EXTT12=
EXTT13=
EXTT14=
EXTT15=
EXTT16=
EXTT17=
EXTT18=
EXTT19=
PLAYORDER=
